<?xml version="1.0" encoding="UTF-8" standalone="no"?>
<!-- Created with Inkscape (http://www.inkscape.org/) -->

<svg
   width="320"
   height="320"
   viewBox="0 0 84.666665 84.666669"
   version="1.1"
   id="svg5"
   inkscape:export-filename="/Users/balloneij/Downloads/bitmap.png"
   inkscape:export-xdpi="192"
   inkscape:export-ydpi="192"
   inkscape:version="1.2-dev (9ee32be, 2021-06-19)"
   sodipodi:docname="logo.svg"
   xmlns:inkscape="http://www.inkscape.org/namespaces/inkscape"
   xmlns:sodipodi="http://sodipodi.sourceforge.net/DTD/sodipodi-0.dtd"
   xmlns="http://www.w3.org/2000/svg"
   xmlns:svg="http://www.w3.org/2000/svg">
  <sodipodi:namedview
     id="namedview7"
     pagecolor="#ffffff"
     bordercolor="#666666"
     borderopacity="1.0"
     inkscape:pageshadow="2"
     inkscape:pageopacity="0.0"
     inkscape:pagecheckerboard="0"
     inkscape:document-units="mm"
     showgrid="false"
     units="px"
     width="320px"
     inkscape:snap-smooth-nodes="true"
     inkscape:snap-midpoints="true"
     inkscape:snap-others="false"
     inkscape:zoom="2.1341967"
     inkscape:cx="105.89464"
     inkscape:cy="117.37437"
     inkscape:window-width="1843"
     inkscape:window-height="1011"
     inkscape:window-x="63"
     inkscape:window-y="25"
     inkscape:window-maximized="0"
     inkscape:current-layer="layer2" />
  <defs
     id="defs2">
    <inkscape:path-effect
       effect="bspline"
       id="path-effect10796"
       is_visible="true"
       lpeversion="1"
       weight="33.333333"
       steps="2"
       helper_size="0"
       apply_no_weight="true"
       apply_with_weight="true"
       only_selected="false" />
    <inkscape:path-effect
       effect="bspline"
       id="path-effect10755"
       is_visible="true"
       lpeversion="1"
       weight="33.333333"
       steps="2"
       helper_size="0"
       apply_no_weight="true"
       apply_with_weight="true"
       only_selected="false" />
    <inkscape:path-effect
       effect="bspline"
       id="path-effect10714"
       is_visible="true"
       lpeversion="1"
       weight="33.333333"
       steps="2"
       helper_size="0"
       apply_no_weight="true"
       apply_with_weight="true"
       only_selected="false" />
    <inkscape:path-effect
       effect="bspline"
       id="path-effect10673"
       is_visible="true"
       lpeversion="1"
       weight="33.333333"
       steps="2"
       helper_size="0"
       apply_no_weight="true"
       apply_with_weight="true"
       only_selected="false" />
    <inkscape:path-effect
       effect="bspline"
       id="path-effect4971"
       is_visible="true"
       lpeversion="1"
       weight="33.333333"
       steps="2"
       helper_size="0"
       apply_no_weight="true"
       apply_with_weight="true"
       only_selected="false" />
    <inkscape:path-effect
       effect="bspline"
       id="path-effect2304"
       is_visible="true"
       lpeversion="1"
       weight="33.333333"
       steps="2"
       helper_size="0"
       apply_no_weight="true"
       apply_with_weight="true"
       only_selected="false" />
    <inkscape:path-effect
       effect="bspline"
       id="path-effect2300"
       is_visible="true"
       lpeversion="1"
       weight="33.333333"
       steps="2"
       helper_size="0"
       apply_no_weight="true"
       apply_with_weight="true"
       only_selected="false" />
    <inkscape:path-effect
       effect="bspline"
       id="path-effect2183"
       is_visible="true"
       lpeversion="1"
       weight="33.333333"
       steps="2"
       helper_size="0"
       apply_no_weight="true"
       apply_with_weight="true"
       only_selected="false" />
    <inkscape:path-effect
       effect="bspline"
       id="path-effect2179"
       is_visible="true"
       lpeversion="1"
       weight="33.333333"
       steps="2"
       helper_size="0"
       apply_no_weight="true"
       apply_with_weight="true"
       only_selected="false" />
    <inkscape:path-effect
       effect="bspline"
       id="path-effect654"
       is_visible="true"
       lpeversion="1"
       weight="33.333333"
       steps="2"
       helper_size="0"
       apply_no_weight="true"
       apply_with_weight="true"
       only_selected="false" />
    <inkscape:path-effect
       effect="bspline"
       id="path-effect650"
       is_visible="true"
       lpeversion="1"
       weight="33.333333"
       steps="2"
       helper_size="0"
       apply_no_weight="true"
       apply_with_weight="true"
       only_selected="false" />
    <inkscape:path-effect
       effect="bspline"
       id="path-effect646"
       is_visible="true"
       lpeversion="1"
       weight="33.333333"
       steps="2"
       helper_size="0"
       apply_no_weight="true"
       apply_with_weight="true"
       only_selected="false" />
    <inkscape:path-effect
       effect="bspline"
       id="path-effect642"
       is_visible="true"
       lpeversion="1"
       weight="33.333333"
       steps="2"
       helper_size="0"
       apply_no_weight="true"
       apply_with_weight="true"
       only_selected="false" />
    <inkscape:path-effect
       effect="bspline"
       id="path-effect430"
       is_visible="true"
       lpeversion="1"
       weight="33.333333"
       steps="2"
       helper_size="0"
       apply_no_weight="true"
       apply_with_weight="true"
       only_selected="false" />
    <inkscape:path-effect
       effect="bspline"
       id="path-effect426"
       is_visible="true"
       lpeversion="1"
       weight="33.333333"
       steps="2"
       helper_size="0"
       apply_no_weight="true"
       apply_with_weight="true"
       only_selected="false" />
    <inkscape:path-effect
       effect="bspline"
       id="path-effect422"
       is_visible="true"
       lpeversion="1"
       weight="33.333333"
       steps="2"
       helper_size="0"
       apply_no_weight="true"
       apply_with_weight="true"
       only_selected="false" />
    <inkscape:path-effect
       effect="bspline"
       id="path-effect328"
       is_visible="true"
       lpeversion="1"
       weight="33.333333"
       steps="2"
       helper_size="0"
       apply_no_weight="true"
       apply_with_weight="true"
       only_selected="false" />
    <inkscape:path-effect
       effect="bspline"
       id="path-effect324"
       is_visible="true"
       lpeversion="1"
       weight="33.333333"
       steps="2"
       helper_size="0"
       apply_no_weight="true"
       apply_with_weight="true"
       only_selected="false" />
    <inkscape:path-effect
       effect="bspline"
       id="path-effect320"
       is_visible="true"
       lpeversion="1"
       weight="33.333333"
       steps="2"
       helper_size="0"
       apply_no_weight="true"
       apply_with_weight="true"
       only_selected="false" />
  </defs>
  <g
     inkscape:groupmode="layer"
     id="layer3"
     inkscape:label="Layer 3">
    <path
       style="fill:#7f55b4;fill-opacity:1;stroke:#000000;stroke-width:1.07051;stroke-linecap:butt;stroke-linejoin:miter;stroke-miterlimit:4;stroke-dasharray:none;stroke-opacity:1"
       d="m 30.62721,44.536364 c -5.022527,0.16947 -10.045598,0.338958 -12.977569,0.64485 -2.931972,0.305892 -3.772474,0.748262 -5.807465,1.876351 -2.0349913,1.12809 -5.2643012,2.941812 -7.1224541,4.335487 -1.8581529,1.393674 -2.3447611,2.36689 -2.543765,4.357808 -0.1990038,1.990917 -0.1105289,4.999042 0.155065,6.945572 0.2655939,1.94653 0.7079619,2.831267 1.7919762,3.760125 1.0840144,0.928858 2.8092608,1.902074 6.2598569,2.720336 3.450596,0.818261 8.626335,1.481819 12.718406,2.366675 4.092071,0.884856 7.1002,1.990784 9.46695,2.875556 2.36675,0.884771 4.091996,1.548326 6.06059,2.056988 1.968593,0.508661 4.180449,0.86256 6.812632,1.216453 2.632182,0.353893 5.684545,0.70779 8.117568,0.729832 2.433022,0.02204 4.246747,-0.287619 7.387602,-1.371488 3.140855,-1.08387 7.608804,-2.941828 10.838118,-4.556513 3.229313,-1.614684 5.21998,-2.986033 6.702062,-3.848695 1.482081,-0.862662 2.455297,-1.216559 3.34002,-1.592586 0.884723,-0.376026 1.68099,-0.774159 0.442417,-3.184799 -1.238574,-2.41064 -4.512121,-6.834353 -6.591218,-9.157085 -2.079097,-2.322732 -2.96384,-2.543917 -4.268104,-2.877073 -1.304264,-0.333155 -3.027965,-0.778265 -4.752368,-1.223555"
       id="path2298"
       sodipodi:nodetypes="ccccccccccccccccccccc"
       inkscape:original-d="m 30.62721,44.536364 c -5.022507,0.170061 -10.045578,0.339543 -15.069214,0.508464 -0.83997,0.442956 -1.680472,0.885327 -2.521564,1.32714 -3.2288705,1.814358 -6.4581795,3.628082 -9.6881205,5.441274 -0.486065,0.973823 -0.972673,1.947039 -1.459854,2.919706 0.08904,3.008813 0.177511,6.016938 0.26543,9.024557 0.442955,0.885344 0.88532,1.770082 1.327137,2.654276 1.725881,0.973824 3.451128,1.947039 5.175842,2.919706 5.1765225,0.664154 10.3522615,1.327711 15.5275435,1.990717 3.008806,1.106536 6.016934,2.212466 9.024552,3.317846 1.725881,0.664153 3.451127,1.327707 5.175847,1.990708 2.212511,0.354478 4.424367,0.708377 6.635701,1.061717 3.053048,0.354479 6.105411,0.708372 9.157265,1.061712 1.814358,-0.309108 3.628083,-0.618768 5.441274,-0.928997 4.468693,-1.857468 8.936641,-3.715428 13.404115,-5.573989 1.991315,-1.370844 3.981983,-2.742191 5.972131,-4.114137 0.973817,-0.353344 1.947033,-0.70724 2.919706,-1.061712 0.796867,-0.397579 1.593132,-0.795717 2.388849,-1.194425 -3.273105,-4.423324 -6.546656,-8.847034 -9.820832,-13.2714 -0.884214,-0.220626 -1.768956,-0.441812 -2.654279,-0.663569 -1.723207,-0.444562 -3.446908,-0.889671 -5.171209,-1.335355"
       inkscape:path-effect="#path-effect2300" />
  </g>
  <g
     inkscape:label="Layer 1"
     inkscape:groupmode="layer"
     id="layer1">
    <path
       style="fill:#7f55b4;fill-opacity:1;stroke:#000000;stroke-width:1.071;stroke-linecap:butt;stroke-linejoin:miter;stroke-miterlimit:4;stroke-dasharray:none;stroke-opacity:1"
       d="m 25.272527,22.808262 c 0.862588,-1.526119 2.587869,-4.57854 4.091968,-7.653064 1.504099,-3.074524 2.786974,-6.1711218 4.069937,-8.4052866 1.282964,-2.2341648 2.565843,-3.6055175 5.662846,-4.2912177 3.097003,-0.6857001 8.00732,-0.6857001 10.705773,-0.3093397 2.698454,0.3763605 3.185061,1.1283917 5.043116,3.6278686 1.858055,2.499477 5.087367,6.7462434 6.613289,9.2898354 1.525922,2.543592 1.348975,3.38409 1.061433,5.087301 -0.287542,1.703211 -0.685675,4.26896 -0.862575,5.994315 -0.176899,1.725356 -0.132659,2.610099 0.642252,5.475241 0.77491,2.865141 2.280839,7.712288 3.11116,10.611642 0.830321,2.899354 0.986482,3.855827 1.073189,4.386569 0.08671,0.530741 0.104169,0.637027 0.158634,1.16178 0.05447,0.524752 0.145788,1.466077 0.01398,2.826697 -0.131808,1.360619 -0.4862,3.13555 -1.349245,4.974746 -0.863046,1.839196 -2.234396,3.741391 -5.021223,5.378102 -2.786826,1.636711 -6.989352,3.00806 -13.271072,2.698511 -6.28172,-0.309549 -14.642537,-2.300219 -18.73494,-3.538806 -4.092403,-1.238588 -3.915454,-1.725198 -3.583658,-2.897486 0.331797,-1.172288 0.818405,-3.03025 1.039651,-4.910291 0.221246,-1.88004 0.177009,-3.782126 0.790906,-5.57045 0.613898,-1.788324 1.885424,-3.461361 2.625157,-4.43991 0.739733,-0.97855 0.946547,-1.261127 1.301561,-1.757131 0.355013,-0.496005 0.857999,-1.205124 2.861314,-3.942955 2.003315,-2.73783 5.506801,-7.504149 7.258575,-9.997662 1.751775,-2.493514 1.751775,-2.714708 0.557655,-3.068833 -1.194121,-0.354126 -3.582924,-0.840734 -6.104621,-0.840837 -2.521697,-1.04e-4 -5.175925,0.486504 -6.967592,0.840404 -1.791668,0.353899 -2.720648,0.575086 -3.185351,0.685731 -0.464703,0.110644 -0.464709,0.110644 0.39788,-1.415474 z"
       id="path2177"
       inkscape:path-effect="#path-effect2179"
       inkscape:original-d="m 24.409938,24.33438 c 1.725847,-3.051858 3.451129,-6.104279 5.175847,-9.157269 1.283493,-3.096154 2.566367,-6.1927517 3.848703,-9.2899802 1.283493,-1.370837 2.566373,-2.7421886 3.84871,-4.1141372 4.911083,5.674e-4 9.8214,5.674e-4 14.731254,0 0.487191,0.7526315 0.9738,1.5046612 1.459852,2.2561432 3.230005,4.2474965 6.459318,8.4942622 9.68812,12.7405402 -0.176398,0.841109 -0.353333,1.68161 -0.530855,2.521569 -0.397581,2.566424 -0.795717,5.132172 -1.194425,7.697412 0.04481,0.885345 0.08904,1.770089 0.132722,2.654277 1.505965,4.846011 3.011893,9.693158 4.516109,14.536043 0.156529,0.955858 0.312695,1.912331 0.468087,2.867005 0.01798,0.106815 0.03548,0.213095 0.05239,0.318887 0.09206,0.94374 0.183398,1.885063 0.274355,2.827951 -0.354431,1.778532 -0.708824,3.553462 -1.064086,5.329348 -1.370844,1.902836 -2.742191,3.805033 -4.114137,5.706702 -4.202127,1.37197 -8.404651,2.743323 -12.607833,4.114131 -8.360578,-1.990181 -16.721395,-3.980851 -25.082943,-5.972125 0.177511,-0.486065 0.354468,-0.972672 0.530857,-1.459859 0.487191,-1.857461 0.9738,-3.715423 1.459852,-5.573982 -0.04368,-1.90171 -0.08791,-3.803796 -0.132721,-5.706704 1.272682,-1.673247 2.544209,-3.346283 3.816132,-5.021155 0.207549,-0.282241 0.414364,-0.564817 0.62073,-0.848122 0.503666,-0.708715 1.006651,-1.417835 1.50914,-2.127618 3.504136,-4.765865 7.007622,-9.532184 10.510533,-14.299057 5.68e-4,-0.220623 5.68e-4,-0.441817 0,-0.663574 -2.388329,-0.486061 -4.777133,-0.972667 -7.166556,-1.459854 -2.653762,0.487197 -5.30799,0.973806 -7.96284,1.459854 -0.928447,0.221763 -1.857427,0.442949 -2.786991,0.663574 z"
       sodipodi:nodetypes="scccccccccccccccccccccccccccss" />
    <path
       style="fill:none;fill-opacity:1;stroke:#000000;stroke-width:1.07051;stroke-linecap:butt;stroke-linejoin:miter;stroke-miterlimit:4;stroke-dasharray:none;stroke-opacity:1"
       d="m 25.736973,52.315379 c 0.649183,0.08673 1.297746,0.173376 2.341522,0.420081 1.043776,0.246706 2.482676,0.653351 4.336092,1.130376 1.853416,0.477025 4.121245,1.024433 6.74106,1.68917 2.619816,0.664737 5.591451,1.446746 7.60898,1.751608 2.017529,0.304862 3.081063,0.13282 5.466241,-0.438082 2.385178,-0.570901 6.091902,-1.540592 8.203296,-2.15058 2.111395,-0.609988 2.627517,-0.86023 3.369974,-2.149423 0.742458,-1.289193 1.71155,-3.617636 2.680778,-5.946404"
       id="path4969"
       inkscape:path-effect="#path-effect4971"
       inkscape:original-d="m 25.736973,52.315379 c 0.64912,0.0872 1.297683,0.17385 1.945677,0.259938 1.439514,0.407229 2.878414,0.813873 4.316775,1.219956 2.268479,0.547998 4.536308,1.095405 6.803616,1.642254 2.972319,0.782607 5.943954,1.564615 8.915078,2.346073 1.064142,-0.171473 2.127676,-0.34352 3.190662,-0.516137 3.707441,-0.96916 7.414164,-1.938854 11.120391,-2.90913 0.516718,-0.249686 1.032838,-0.499932 1.548411,-0.750745 0.969697,-2.327967 1.938789,-4.65641 2.907333,-6.985463"
       sodipodi:nodetypes="ccccccccc" />
    <path
       style="fill:#b49955;fill-opacity:1;stroke:#001a00;stroke-width:0.11714;stroke-miterlimit:4;stroke-dasharray:none;stroke-opacity:1"
       d="m 66.047119,48.840625 c -0.704294,1.540457 -1.315365,3.149319 -2.267595,4.557831 -0.764977,1.117878 -2.175828,1.422858 -3.389006,1.786382 -3.184297,0.875276 -6.371439,1.755807 -9.601491,2.451082 -1.737558,0.387048 -3.531425,0.259056 -5.256292,-0.108133 -3.238156,-0.698516 -6.447628,-1.554242 -9.668264,-2.342613 -2.92265,-0.705022 -5.815631,-1.534472 -8.748984,-2.196076 -0.303967,-0.03677 -0.620914,-0.181027 -0.925045,-0.114257 -0.218365,0.46573 -0.212678,1.025996 -0.353331,1.525376 -0.229963,1.213971 -0.635404,2.387994 -0.83628,3.606075 0.05472,0.493969 0.650445,0.64063 1.019632,0.841663 2.605964,1.049205 5.355051,1.686192 8.080341,2.340681 4.343995,0.979004 8.744175,1.818675 13.199478,2.036154 2.383342,0.01302 4.791302,0.02021 7.126959,-0.521732 3.193706,-0.689782 6.356948,-2.076987 8.620575,-4.493656 2.203463,-2.484578 3.234052,-5.854843 3.212028,-9.142839 0.04258,-0.139959 -0.04559,-0.378595 -0.212725,-0.225938 z"
       id="path12716" />
  </g>
  <g
     inkscape:groupmode="layer"
     id="layer2"
     inkscape:label="Layer 2">
    <path
       style="fill:#b49955;fill-opacity:1;stroke:#00000a;stroke-width:0.22384px;stroke-linecap:butt;stroke-linejoin:miter;stroke-opacity:1"
       d="m 48.379348,31.867005 c 1.687391,-0.358493 3.374616,-0.71695 4.366529,-0.543741 0.991913,0.173208 1.288563,0.877751 1.43065,1.421591 0.142087,0.54384 0.129727,0.927014 -0.111278,1.272989 -0.241005,0.345975 -0.710698,0.654983 -1.656221,0.852765 -0.945522,0.197782 -2.366964,0.284306 -3.392929,0.41408 -1.025965,0.129774 -1.656343,0.302818 -1.990164,0.537791 -0.333822,0.234973 -0.370896,0.531619 0.667566,1.217616 1.038462,0.685996 3.152081,1.761346 4.190354,2.298964 1.038272,0.537618 1.001192,0.537618 0.02465,0.815716 -0.976541,0.278098 -2.892395,0.834314 -4.097608,1.279304 -1.205213,0.44499 -1.699625,0.778719 -2.03341,1.112517 -0.333785,0.333798 -0.506831,0.667531 -0.457255,0.97662 0.04958,0.309088 0.321502,0.593375 0.791237,0.834335 0.469735,0.240959 1.137194,0.438724 1.891187,0.574663 0.753994,0.135938 1.594497,0.2101 2.44738,0.253353 0.852883,0.04325 1.71811,0.05561 2.441213,0.07415 0.723103,0.01854 1.304041,0.04325 1.786128,0.148378 0.482087,0.105124 0.865253,0.290527 1.044336,0.482148 0.179083,0.191621 0.154363,0.38939 -0.20405,0.67357 -0.358412,0.28418 -1.05059,0.654991 -2.255722,1.019636 -1.205132,0.364646 -2.92322,0.723096 -4.412666,0.93324 -1.489445,0.210143 -2.7502,0.271946 -3.343551,0.290475 -0.593351,0.01853 -0.519164,-0.0062 0.599497,-0.284302 1.118661,-0.278109 3.281724,-0.809604 4.493032,-1.137164 1.211309,-0.327561 1.470878,-0.451166 0.791095,-0.531485 -0.679783,-0.08032 -2.29899,-0.117401 -3.411441,-0.185368 -1.112451,-0.06797 -1.71811,-0.166848 -2.388673,-0.330607 -0.670563,-0.163759 -1.406002,-0.392423 -1.773865,-0.5068 -0.367862,-0.114377 -0.460572,-0.169997 -0.744736,-0.355322 -0.284163,-0.185325 -0.852753,-0.556146 -1.254528,-0.945461 -0.401775,-0.389315 -0.636623,-0.79721 -0.729417,-1.174249 -0.09279,-0.377039 -0.04335,-0.723135 0.129712,-1.050784 0.173062,-0.327649 0.469711,-0.636659 0.822024,-0.920976 0.352312,-0.284317 0.760204,-0.543884 1.279388,-0.791102 0.519184,-0.247219 1.149563,-0.482067 1.82325,-0.667471 0.673686,-0.185404 1.390585,-0.321367 2.051901,-0.407881 0.661316,-0.08652 1.266974,-0.123596 1.575859,-0.148286 0.308885,-0.02469 0.32126,-0.03706 -0.03087,-0.166825 -0.352132,-0.129759 -1.069031,-0.376966 -1.829219,-0.729219 -0.760188,-0.352252 -1.563612,-0.809585 -2.175495,-1.279249 -0.611883,-0.469664 -1.032134,-0.951718 -1.285586,-1.322523 -0.253452,-0.370806 -0.339975,-0.630372 -0.309119,-0.846817 0.03086,-0.216445 0.179168,-0.389476 0.370814,-0.531656 0.191646,-0.142179 0.426498,-0.253425 0.717009,-0.346126 0.290512,-0.0927 0.636602,-0.166863 1.501878,-0.253378 0.865277,-0.08651 2.249637,-0.185398 3.257015,-0.302836 1.007377,-0.117438 1.637753,-0.2534 2.057981,-0.370832 0.420229,-0.117433 0.630353,-0.216316 0.679833,-0.345955 0.04948,-0.12964 -0.06176,-0.290319 -0.438732,-0.401683 -0.376972,-0.111364 -1.019709,-0.173166 -1.613038,-0.197902 -0.593328,-0.02474 -1.137184,-0.01238 -1.545067,-0.03089 -0.407884,-0.01852 -0.67981,-0.06796 -0.815906,-0.0927 -0.136096,-0.02475 -0.136096,-0.02475 0.06485,-0.06802 0.200944,-0.04328 0.602664,-0.129806 1.004214,-0.216294"
       id="path318-0"
       sodipodi:nodetypes="ccccccccccccccccccccccccccccccccccccccccccccccccccccccc"
       inkscape:original-d="m 48.379348,31.867005 c 1.687446,-0.358233 3.374671,-0.71669 5.061667,-1.075371 0.296885,0.704792 0.593535,1.409335 0.889966,2.113663 -0.01199,0.38341 -0.02443,0.766582 -0.03708,1.149538 -0.469487,0.309243 -0.939178,0.618253 -1.409108,0.927042 -1.421273,0.08675 -2.842715,0.173272 -4.264408,0.259576 -0.630179,0.173272 -1.260556,0.34632 -1.891171,0.519144 -0.03687,0.296885 -0.07393,0.593533 -0.111226,0.889964 2.113931,1.075618 4.227551,2.150966 6.340989,3.226117 -0.03685,2.25e-4 -0.07393,2.25e-4 -0.111225,0 -1.91571,0.556461 -3.831563,1.112679 -5.747681,1.668682 -0.494212,0.333968 -0.988624,0.667697 -1.483273,1.001209 -0.172822,0.333968 -0.345873,0.667698 -0.519145,1.001209 0.272161,0.284523 0.544088,0.568809 0.815797,0.85288 0.667711,0.198001 1.335171,0.395764 2.002418,0.593308 0.840764,0.0744 1.681267,0.148565 2.521564,0.222492 0.865484,0.01263 1.730712,0.02494 2.595729,0.03708 0.581183,0.02494 1.162121,0.04965 1.742846,0.07414 0.383408,0.185647 0.766578,0.371044 1.149534,0.556228 -0.02443,0.198001 -0.04922,0.395762 -0.07416,0.593306 -0.691985,0.371054 -1.384163,0.741865 -2.076581,1.112458 -1.717936,0.358688 -3.436024,0.71714 -5.154375,1.075372 -1.260581,0.06205 -2.521337,0.123836 -3.782342,0.185411 0.0744,-0.02443 0.148564,-0.04922 0.222489,-0.07414 2.163375,-0.531294 4.326438,-1.062789 6.489318,-1.594517 0.259801,-0.123386 0.519371,-0.246989 0.778718,-0.370821 -1.619047,-0.03685 -3.238254,-0.07393 -4.857717,-0.111247 -0.605464,-0.09866 -1.211122,-0.197549 -1.817012,-0.296652 -0.735249,-0.228458 -1.47069,-0.457116 -2.206371,-0.686011 l -0.09271,-0.05562 c -0.568361,-0.370598 -1.136951,-0.741419 -1.705764,-1.11246 -0.234627,-0.407685 -0.469479,-0.815577 -0.704555,-1.223701 0.04965,-0.34588 0.09913,-0.69197 0.148329,-1.038291 0.296883,-0.308798 0.593533,-0.617806 0.889962,-0.927045 0.408134,-0.259353 0.816025,-0.51892 1.223701,-0.778717 0.630628,-0.234629 1.261005,-0.469481 1.891171,-0.704555 0.717153,-0.135761 1.434055,-0.271709 2.150747,-0.407899 0.605906,-0.03685 1.211564,-0.07393 1.817009,-0.111247 0.01263,-0.01199 0.02494,-0.02443 0.03708,-0.03708 -0.716706,-0.246991 -1.433604,-0.494201 -2.150746,-0.741637 -0.80323,-0.457127 -1.606654,-0.91446 -2.410319,-1.372026 -0.420042,-0.481849 -0.840295,-0.963902 -1.260779,-1.44619 -0.0863,-0.259354 -0.172822,-0.518921 -0.259573,-0.778718 0.148564,-0.172843 0.296878,-0.345873 0.444981,-0.519145 0.235072,-0.111033 0.469928,-0.222269 0.704557,-0.333739 0.346325,-0.07393 0.692415,-0.148093 1.038287,-0.222491 1.38464,-0.09866 2.769,-0.197551 4.153163,-0.296655 0.630628,-0.135761 1.261006,-0.271711 1.891174,-0.407898 0.210354,-0.09868 0.420484,-0.197551 0.63039,-0.296657 -0.111033,-0.160468 -0.222267,-0.321151 -0.333736,-0.482065 -0.642539,-0.06158 -1.285278,-0.123365 -1.928256,-0.185412 -0.543652,0.01263 -1.087509,0.02494 -1.631597,0.03708 -0.271716,-0.04922 -0.543643,-0.09866 -0.815802,-0.148329 v 0 c 0.401947,-0.08628 0.803664,-0.172823 1.205157,-0.259574"
       inkscape:path-effect="#path-effect10673" />
    <path
       style="fill:#b49955;fill-opacity:1;stroke:#000000;stroke-width:0.082515px;stroke-linecap:butt;stroke-linejoin:miter;stroke-opacity:1"
       d="m 40.443048,6.6396832 c 0.544226,-0.3289409 1.088399,-0.6578495 1.454758,-0.7175136 0.366359,-0.059664 0.554878,0.1497893 0.670135,0.3219885 0.115257,0.1721993 0.157287,0.3071127 0.115213,0.4567382 -0.04208,0.1496255 -0.168264,0.3140539 -0.473595,0.4972942 -0.30533,0.1832403 -0.789843,0.3853026 -1.131409,0.5545922 -0.341566,0.1692897 -0.540147,0.3058022 -0.627969,0.4280024 -0.08782,0.1222001 -0.06485,0.2299891 0.379746,0.3432582 0.444595,0.1132692 1.310679,0.2320694 1.737302,0.2936763 0.426623,0.061607 0.413637,0.066117 0.107216,0.2810793 -0.306421,0.2149625 -0.906286,0.6403885 -1.272141,0.9411231 -0.365856,0.300735 -0.497659,0.476757 -0.573515,0.633368 -0.07586,0.156612 -0.09575,0.293751 -0.0411,0.39539 0.05465,0.101638 0.183733,0.167744 0.376449,0.194831 0.192715,0.02709 0.449061,0.01522 0.728063,-0.02865 0.279002,-0.04387 0.580654,-0.119706 0.882882,-0.207803 0.302228,-0.0881 0.605016,-0.18844 0.859062,-0.269443 0.254047,-0.081 0.459328,-0.142663 0.639915,-0.164368 0.180588,-0.02171 0.336446,-0.0035 0.421988,0.04158 0.08554,0.04506 0.100856,0.116929 0.01042,0.25924 -0.09044,0.142311 -0.286612,0.355158 -0.66216,0.627907 -0.375547,0.272749 -0.930468,0.605387 -1.423709,0.858724 -0.493241,0.253337 -0.924789,0.427355 -1.129168,0.505575 -0.204379,0.07822 -0.18152,0.06062 0.174378,-0.171529 0.355897,-0.232153 1.044835,-0.678873 1.427017,-0.939455 0.382182,-0.260582 0.457612,-0.335017 0.211187,-0.280766 -0.246426,0.05425 -0.814758,0.237201 -1.210359,0.348094 -0.395601,0.110894 -0.618466,0.149718 -0.871779,0.173803 -0.253313,0.02409 -0.537069,0.03342 -0.679003,0.03809 -0.141934,0.0047 -0.180954,-0.0035 -0.302324,-0.03369 -0.121371,-0.03016 -0.364219,-0.09051 -0.551216,-0.177483 -0.186997,-0.08697 -0.318115,-0.200599 -0.396034,-0.32066 -0.07792,-0.12006 -0.102569,-0.24658 -0.08194,-0.381611 0.02063,-0.135031 0.08655,-0.278512 0.174844,-0.420131 0.08829,-0.141619 0.198937,-0.281352 0.349826,-0.430239 0.150889,-0.148887 0.341989,-0.3069126 0.554159,-0.4529643 0.21217,-0.1460516 0.445361,-0.2801093 0.66518,-0.3902247 0.219818,-0.1101154 0.426246,-0.1962881 0.530839,-0.2422992 0.104592,-0.046011 0.107337,-0.05171 -0.03098,-0.054324 -0.138315,-0.00261 -0.417852,-0.00198 -0.725178,-0.032691 C 40.422731,9.0874743 40.087645,9.0254026 39.817767,8.9358697 39.547889,8.8463368 39.343232,8.7293033 39.210123,8.6308367 39.077014,8.53237 39.015483,8.4524383 39.000052,8.3733376 c -0.01543,-0.079101 0.01528,-0.1572937 0.06482,-0.229991 0.04954,-0.072697 0.117865,-0.13984 0.207814,-0.2072594 0.08995,-0.067419 0.201495,-0.1351074 0.492339,-0.2698983 0.290844,-0.134791 0.760947,-0.3366762 1.097532,-0.4994219 0.336586,-0.1627457 0.539654,-0.2863414 0.671786,-0.3780677 0.132132,-0.091726 0.193337,-0.1515736 0.19488,-0.2027071 0.0015,-0.051133 -0.05663,-0.09363 -0.20136,-0.086805 -0.144734,0.00682 -0.376026,0.063051 -0.585622,0.1262103 -0.209596,0.063159 -0.397489,0.1332601 -0.541763,0.1761546 -0.144275,0.042895 -0.24494,0.058569 -0.295326,0.066414 -0.05039,0.00785 -0.05039,0.00785 0.01436,-0.031533 0.06474,-0.039378 0.19416,-0.1180945 0.323524,-0.1967781"
       id="path318-0-8"
       sodipodi:nodetypes="ccccccccccccccccccccccccccccccccccccccccccccccccccccccc"
       inkscape:original-d="m 40.443048,6.6396832 c 0.544276,-0.3288581 1.088449,-0.6577662 1.632514,-0.9867235 0.18864,0.2095122 0.377154,0.4189703 0.565573,0.6283768 0.04213,0.1350001 0.08422,0.2698948 0.126106,0.4047928 -0.126073,0.1644607 -0.25226,0.328891 -0.378549,0.49326 -0.484424,0.202135 -0.968942,0.404185 -1.45357,0.6062 -0.198485,0.13656 -0.397064,0.273075 -0.59575,0.409543 0.02317,0.107814 0.04605,0.215623 0.06892,0.32336 0.866225,0.118853 1.732309,0.237655 2.598306,0.356408 -0.01272,0.0045 -0.02571,0.009 -0.03873,0.01345 -0.599785,0.425494 -1.199649,0.850921 -1.799632,1.2763047 -0.131697,0.17607 -0.263499,0.352093 -0.395405,0.528061 -0.0198,0.1372 -0.03967,0.274343 -0.05968,0.411442 0.12919,0.06616 0.258271,0.132268 0.387245,0.198315 0.256461,-0.01182 0.512807,-0.02369 0.769052,-0.03561 0.301775,-0.07579 0.603428,-0.151626 0.90498,-0.227526 0.302925,-0.100249 0.605692,-0.200655 0.908389,-0.301036 0.205399,-0.06161 0.410648,-0.123376 0.61587,-0.184986 0.155957,0.01827 0.311817,0.03647 0.467576,0.05465 0.01545,0.0719 0.03068,0.143782 0.04594,0.215574 -0.196081,0.212918 -0.392262,0.425761 -0.588552,0.638565 -0.554836,0.332706 -1.109758,0.665342 -1.664798,0.997935 -0.431458,0.174082 -0.863006,0.3481 -1.294674,0.522064 0.02296,-0.0175 0.04577,-0.03516 0.06851,-0.05274 0.68907,-0.446695 1.378011,-0.893409 2.066858,-1.340189 0.07555,-0.07438 0.150976,-0.148819 0.226313,-0.223329 -0.568217,0.183096 -1.136581,0.365946 -1.705024,0.548855 -0.22277,0.03887 -0.445633,0.07771 -0.668608,0.116475 -0.283662,0.0094 -0.567418,0.01872 -0.851288,0.028 l -0.03902,-0.0082 c -0.242747,-0.0603 -0.485595,-0.120654 -0.728548,-0.181056 -0.131021,-0.113575 -0.262128,-0.227218 -0.393361,-0.340898 -0.02464,-0.12641 -0.04917,-0.252954 -0.07394,-0.379498 0.06603,-0.143449 0.131953,-0.286928 0.19777,-0.430468 0.11075,-0.139673 0.221388,-0.279413 0.331929,-0.419186 0.191217,-0.157991 0.382326,-0.3160057 0.573326,-0.4740957 0.233305,-0.134035 0.466508,-0.268072 0.699603,-0.40219 0.206563,-0.08603 0.41295,-0.1723 0.619273,-0.258514 0.003,-0.0058 0.0057,-0.01152 0.0084,-0.01744 -0.279453,6.73e-4 -0.55899,0.0013 -0.838646,0.0019 -0.335,-0.06203 -0.670086,-0.124097 -1.005288,-0.186221 -0.204546,-0.116977 -0.409203,-0.234011 -0.613961,-0.351094 -0.06143,-0.07987 -0.122963,-0.1598 -0.184576,-0.239774 0.03083,-0.07816 0.06155,-0.156351 0.09216,-0.234616 0.06842,-0.06711 0.136751,-0.134245 0.204974,-0.201432 0.111656,-0.06764 0.223199,-0.135331 0.334644,-0.20307 0.470226,-0.20185 0.940334,-0.403723 1.410342,-0.60567 0.203182,-0.123539 0.406247,-0.2471401 0.609212,-0.3707918 0.06132,-0.059812 0.122533,-0.1196513 0.183633,-0.1795592 -0.05809,-0.042451 -0.116253,-0.084956 -0.174521,-0.1274978 -0.231193,0.056287 -0.462485,0.1125136 -0.693889,0.1686837 -0.18776,0.070196 -0.375676,0.1402342 -0.563665,0.2102977 -0.100582,0.015672 -0.20124,0.031391 -0.302021,0.047026 v 0 c 0.129537,-0.07867 0.258945,-0.157402 0.388266,-0.2361564"
       inkscape:path-effect="#path-effect10714" />
    <path
       style="fill:#b49955;fill-opacity:1;stroke:#000000;stroke-width:0.107;stroke-linecap:butt;stroke-linejoin:miter;stroke-miterlimit:4;stroke-dasharray:none;stroke-opacity:1"
       d="m 34.284844,44.284964 c 0.581147,-0.258171 1.162237,-0.516317 1.533184,-0.529616 0.370947,-0.0133 0.531742,0.218121 0.624519,0.403404 0.09278,0.185282 0.117574,0.324398 0.05709,0.467573 -0.06049,0.143175 -0.206282,0.2905 -0.532162,0.434046 -0.32588,0.143547 -0.831891,0.283321 -1.191973,0.408487 -0.360083,0.125166 -0.574202,0.235726 -0.67664,0.345962 -0.102438,0.110237 -0.09315,0.220055 0.333754,0.388127 0.426902,0.168072 1.271281,0.394435 1.686825,0.509004 0.415543,0.114568 0.402094,0.117418 0.07116,0.292301 -0.330935,0.174884 -0.979369,0.521811 -1.380017,0.774344 -0.400648,0.252533 -0.553464,0.410657 -0.648343,0.556531 -0.09488,0.145875 -0.131796,0.279442 -0.09031,0.387126 0.04149,0.107684 0.16127,0.18944 0.349075,0.240457 0.187804,0.05102 0.443617,0.07136 0.725916,0.06279 0.2823,-0.0086 0.591075,-0.04602 0.901958,-0.09556 0.310884,-0.04954 0.623858,-0.111162 0.886051,-0.159701 0.262192,-0.04854 0.473581,-0.084 0.655464,-0.08291 0.181884,0.0011 0.334235,0.03869 0.413456,0.09411 0.07922,0.05542 0.08541,0.128642 -0.02214,0.258502 -0.107551,0.12986 -0.328847,0.316455 -0.735605,0.540009 -0.406758,0.223554 -0.998978,0.484055 -1.52007,0.673605 -0.521092,0.189551 -0.971041,0.308136 -1.183608,0.360137 -0.212566,0.052 -0.187686,0.03741 0.194493,-0.148331 0.382179,-0.18574 1.121652,-0.542634 1.533469,-0.753287 0.411817,-0.210652 0.495972,-0.275047 0.244693,-0.252094 -0.251279,0.02295 -0.838053,0.133262 -1.24443,0.193724 -0.406376,0.06046 -0.632349,0.07106 -0.886684,0.06322 -0.254334,-0.0078 -0.537025,-0.03413 -0.678426,-0.04728 -0.1414,-0.01315 -0.17909,-0.02617 -0.295727,-0.0713 -0.116636,-0.04513 -0.35001,-0.135428 -0.524639,-0.245138 -0.174629,-0.10971 -0.290479,-0.238871 -0.352743,-0.367747 -0.06226,-0.128875 -0.07087,-0.257488 -0.03348,-0.388872 0.03739,-0.131384 0.120763,-0.265472 0.226099,-0.394915 0.105337,-0.129442 0.232616,-0.254213 0.400968,-0.383025 0.168352,-0.128812 0.377744,-0.261652 0.606539,-0.379973 0.228794,-0.118322 0.476944,-0.222111 0.708826,-0.303822 0.231882,-0.08171 0.447477,-0.141343 0.557019,-0.173892 0.109543,-0.03255 0.112981,-0.03784 -0.02391,-0.05776 -0.136887,-0.01992 -0.414302,-0.05432 -0.715359,-0.123286 -0.301058,-0.06897 -0.625727,-0.17253 -0.882263,-0.295167 -0.256536,-0.122636 -0.444919,-0.264386 -0.564642,-0.378748 -0.119722,-0.114362 -0.17076,-0.20138 -0.176158,-0.281794 -0.0054,-0.08041 0.03487,-0.154139 0.09313,-0.220057 0.05826,-0.06592 0.134453,-0.12397 0.23214,-0.17959 0.09769,-0.05562 0.216834,-0.108802 0.522273,-0.206095 0.305438,-0.09729 0.797129,-0.238696 1.151451,-0.357994 0.354322,-0.119298 0.571273,-0.216481 0.713856,-0.290932 0.142582,-0.07445 0.210801,-0.126159 0.21874,-0.176695 0.0079,-0.05054 -0.04445,-0.09999 -0.188903,-0.111349 -0.144449,-0.01136 -0.380962,0.01545 -0.596819,0.05185 -0.215857,0.03641 -0.411051,0.08242 -0.559562,0.106895 -0.148511,0.02448 -0.250346,0.02741 -0.301319,0.02888 -0.05097,0.0015 -0.05097,0.0015 0.01819,-0.02949 0.06917,-0.03096 0.207424,-0.09284 0.345628,-0.154698"
       id="path318-0-8-0"
       sodipodi:nodetypes="ccccccccccccccccccccccccccccccccccccccccccccccccccccccc"
       inkscape:original-d="m 34.284844,44.284964 c 0.581186,-0.258083 1.162276,-0.516229 1.743265,-0.774436 0.160907,0.231494 0.321696,0.462917 0.482398,0.694278 0.02489,0.139215 0.04975,0.27832 0.0744,0.417401 -0.145683,0.147372 -0.291475,0.294699 -0.437361,0.441952 -0.505929,0.139856 -1.011943,0.279618 -1.518061,0.41933 -0.214028,0.110618 -0.428145,0.221181 -0.642362,0.331682 0.0095,0.109869 0.01867,0.219697 0.02787,0.329448 0.844511,0.226433 1.68889,0.452797 2.533188,0.679102 -0.01318,0.0029 -0.02664,0.0057 -0.04011,0.0085 -0.648363,0.347005 -1.296797,0.693932 -1.945344,1.040803 -0.152715,0.158184 -0.30553,0.316309 -0.458442,0.474366 -0.03683,0.133639 -0.07373,0.267211 -0.110757,0.400724 0.119884,0.08182 0.239666,0.163581 0.35935,0.245265 0.255921,0.02041 0.511735,0.04074 0.767454,0.06102 0.308893,-0.03739 0.617669,-0.07484 0.926354,-0.112363 0.313097,-0.06151 0.626059,-0.123195 0.938946,-0.184865 0.211499,-0.03539 0.422869,-0.07096 0.634191,-0.106376 0.15244,0.03766 0.304793,0.07525 0.457048,0.11279 0.0063,0.07327 0.01242,0.146493 0.01857,0.219631 -0.22121,0.186675 -0.442509,0.373266 -0.663912,0.559803 -0.592145,0.260579 -1.184366,0.521076 -1.776699,0.781518 -0.449867,0.118659 -0.899816,0.237244 -1.349876,0.355761 0.02497,-0.01449 0.04981,-0.02915 0.07458,-0.04374 0.739602,-0.356852 1.479078,-0.71374 2.218467,-1.070706 0.08427,-0.06434 0.168433,-0.128724 0.252508,-0.193217 -0.586678,0.11047 -1.173471,0.220678 -1.760348,0.330934 -0.225886,0.01066 -0.451859,0.02127 -0.677933,0.0318 -0.282604,-0.02622 -0.565295,-0.05251 -0.84809,-0.07887 l -0.03769,-0.01302 c -0.233281,-0.09024 -0.466656,-0.180536 -0.700128,-0.270898 -0.115761,-0.129094 -0.231598,-0.258267 -0.347557,-0.387491 -0.0086,-0.128501 -0.0171,-0.257121 -0.02581,-0.385772 0.08349,-0.134045 0.16686,-0.268136 0.250141,-0.4023 0.127374,-0.124699 0.254647,-0.249477 0.381827,-0.374302 0.209502,-0.132791 0.418901,-0.26562 0.628202,-0.398537 0.248257,-0.103751 0.496416,-0.207519 0.744475,-0.311379 0.215714,-0.05948 0.431284,-0.119201 0.646779,-0.178898 0.0037,-0.0054 0.0071,-0.01071 0.01056,-0.01624 -0.277334,-0.03434 -0.554751,-0.06872 -0.832277,-0.10318 -0.324589,-0.103509 -0.64926,-0.207064 -0.974038,-0.310691 -0.188281,-0.14168 -0.376665,-0.28343 -0.565142,-0.425243 -0.05093,-0.08693 -0.101975,-0.173944 -0.153084,-0.261006 0.04038,-0.07369 0.08066,-0.147409 0.120828,-0.221223 0.07629,-0.05801 0.152491,-0.116055 0.228595,-0.174167 0.119251,-0.05311 0.238394,-0.106304 0.357446,-0.159547 0.491808,-0.141353 0.983503,-0.282743 1.475107,-0.424218 0.217055,-0.09712 0.434006,-0.194302 0.650864,-0.291553 0.06833,-0.05166 0.136556,-0.103358 0.204679,-0.15514 -0.05231,-0.04939 -0.104694,-0.09885 -0.157174,-0.148357 -0.236425,0.02687 -0.472938,0.05368 -0.709553,0.08043 -0.195076,0.04612 -0.390285,0.09207 -0.585569,0.138028 -0.101755,0.0029 -0.203588,0.0059 -0.305534,0.0088 v 0 c 0.138369,-0.06183 0.276623,-0.123723 0.414793,-0.185656"
       inkscape:path-effect="#path-effect10796" />
    <path
       style="fill:#b49955;fill-opacity:1;stroke:#000000;stroke-width:0.082515px;stroke-linecap:butt;stroke-linejoin:miter;stroke-opacity:1"
       d="m 55.870617,19.1984 c 0.635912,9.33e-4 1.271761,0.0019 1.615957,0.140819 0.344195,0.138952 0.396781,0.415799 0.406041,0.622804 0.0093,0.207006 -0.02476,0.344158 -0.138321,0.450279 -0.113563,0.106122 -0.306722,0.181283 -0.662814,0.17964 -0.356091,-0.0016 -0.875155,-0.0801 -1.254995,-0.112467 -0.379841,-0.03236 -0.620426,-0.01861 -0.758883,0.04034 -0.138458,0.05895 -0.174707,0.163029 0.146713,0.490417 0.321419,0.327388 1.00037,0.878063 1.333217,1.151958 0.332847,0.273894 0.319394,0.271008 -0.05408,0.295921 -0.373472,0.02491 -1.106988,0.07763 -1.575758,0.145062 -0.468769,0.06744 -0.672741,0.149601 -0.818811,0.244178 -0.146071,0.09458 -0.234193,0.201524 -0.240167,0.316769 -0.006,0.115245 0.07012,0.238702 0.220857,0.361793 0.150737,0.123091 0.376082,0.245867 0.637389,0.353032 0.261307,0.107164 0.558563,0.198734 0.862667,0.280122 0.304103,0.08139 0.615036,0.152595 0.874263,0.215064 0.259227,0.06247 0.466726,0.116192 0.632394,0.191273 0.165668,0.07508 0.28949,0.171475 0.339266,0.254363 0.04978,0.08289 0.02561,0.152277 -0.125513,0.227068 -0.15112,0.07479 -0.429231,0.155062 -0.891776,0.193538 -0.462545,0.03848 -1.109518,0.03514 -1.662631,-0.004 -0.553114,-0.03915 -1.012345,-0.114129 -1.227657,-0.153229 -0.215312,-0.0391 -0.186652,-0.0423 0.238043,-0.05626 0.424695,-0.01396 1.245415,-0.0387 1.707323,-0.06333 0.461908,-0.02464 0.565002,-0.04917 0.326163,-0.130564 -0.238839,-0.08139 -0.81966,-0.21966 -1.215424,-0.329973 -0.395763,-0.110313 -0.606457,-0.192679 -0.835542,-0.303436 -0.229086,-0.110758 -0.476553,-0.249916 -0.600335,-0.319523 -0.123782,-0.06961 -0.152892,-0.09686 -0.241031,-0.185582 -0.08814,-0.08873 -0.264492,-0.266254 -0.379289,-0.437582 -0.114797,-0.171328 -0.167989,-0.336477 -0.172358,-0.47954 -0.0044,-0.143063 0.04016,-0.264026 0.127822,-0.368787 0.08766,-0.104761 0.218424,-0.193261 0.367352,-0.268571 0.148927,-0.07531 0.315992,-0.137416 0.522215,-0.186482 0.206222,-0.04907 0.451564,-0.08509 0.708715,-0.09996 0.257151,-0.01487 0.526056,-0.0086 0.771113,0.01125 0.245056,0.01983 0.466244,0.05318 0.579513,0.0681 0.113268,0.01492 0.118655,0.01143 0.0017,-0.06252 -0.116914,-0.07395 -0.356263,-0.218357 -0.603119,-0.403976 -0.246857,-0.185619 -0.501188,-0.412447 -0.685523,-0.628943 -0.184335,-0.216496 -0.298643,-0.422689 -0.3614,-0.575902 -0.06276,-0.153213 -0.07392,-0.253471 -0.0461,-0.329108 0.02782,-0.07564 0.09463,-0.126569 0.174687,-0.16304 0.08006,-0.03647 0.173294,-0.05845 0.285166,-0.06946 0.111872,-0.01101 0.242347,-0.01104 0.560928,0.02452 0.318582,0.03556 0.825232,0.1067 1.197422,0.142066 0.37219,0.03537 0.609912,0.03497 0.770458,0.02504 0.160546,-0.0099 0.243908,-0.02936 0.271742,-0.07228 0.02783,-0.04292 1.32e-4,-0.109423 -0.127162,-0.178637 -0.127294,-0.06921 -0.354216,-0.141069 -0.566183,-0.195747 -0.211967,-0.05468 -0.408975,-0.09217 -0.554581,-0.130301 -0.145606,-0.03814 -0.239806,-0.07693 -0.286957,-0.09635 -0.04715,-0.01942 -0.04715,-0.01942 0.02863,-0.01952 0.07578,-9.9e-5 0.227253,-2.98e-4 0.378668,-4.97e-4"
       id="path318-0-8-4"
       sodipodi:nodetypes="ccccccccccccccccccccccccccccccccccccccccccccccccccccccc"
       inkscape:original-d="m 55.870617,19.1984 c 0.635912,0.001 1.271761,0.002 1.907543,0.0028 0.05266,0.276961 0.105237,0.55381 0.157762,0.830566 -0.03398,0.137279 -0.06793,0.274449 -0.102071,0.411512 -0.193079,0.07525 -0.386238,0.150413 -0.579455,0.225474 -0.519023,-0.07835 -1.038084,-0.156828 -1.557221,-0.23539 -0.240526,0.01384 -0.48111,0.0276 -0.721761,0.04126 -0.03609,0.104203 -0.07244,0.208249 -0.108743,0.312229 0.679042,0.550794 1.357991,1.101471 2.036891,1.65206 -0.01321,-0.0027 -0.02666,-0.0056 -0.04009,-0.0086 -0.733483,0.05281 -1.466999,0.105527 -2.200596,0.158143 -0.203907,0.08226 -0.407878,0.164426 -0.611911,0.246491 -0.08807,0.107048 -0.176179,0.214006 -0.26438,0.320858 0.07616,0.12356 0.152251,0.247019 0.228283,0.37037 0.225416,0.122881 0.450763,0.245653 0.676047,0.368335 0.297332,0.09168 0.594588,0.183249 0.891789,0.274715 0.311,0.07136 0.621948,0.142502 0.932822,0.213629 0.207574,0.05383 0.415102,0.107441 0.622525,0.161175 0.12388,0.09649 0.24771,0.192873 0.371468,0.28918 -0.02407,0.06949 -0.04832,0.138849 -0.0725,0.208149 -0.278066,0.08038 -0.556178,0.160648 -0.834364,0.240825 -0.646936,-0.0032 -1.293909,-0.0065 -1.94096,-0.01 -0.459189,-0.07488 -0.918421,-0.149853 -1.377728,-0.224939 0.02871,-0.0031 0.05737,-0.0063 0.08593,-0.0096 0.820821,-0.02464 1.641541,-0.04937 2.462215,-0.0742 0.103166,-0.02443 0.206261,-0.04896 0.309313,-0.07361 -0.580798,-0.138083 -1.161596,-0.276452 -1.74249,-0.414811 -0.210638,-0.08228 -0.421337,-0.164632 -0.632095,-0.247104 -0.247415,-0.139062 -0.494885,-0.278215 -0.742417,-0.417484 l -0.02911,-0.02725 c -0.176293,-0.177437 -0.352648,-0.354963 -0.529067,-0.532591 -0.05314,-0.165051 -0.106313,-0.330206 -0.159579,-0.495458 0.04448,-0.120866 0.08912,-0.241788 0.133562,-0.362832 0.130848,-0.08842 0.26161,-0.176917 0.392317,-0.265523 0.167124,-0.062 0.334185,-0.124117 0.501181,-0.186312 0.245425,-0.03594 0.49077,-0.07195 0.736062,-0.108089 0.26899,0.0064 0.537896,0.01268 0.806749,0.01887 0.221235,0.03355 0.442439,0.0668 0.663561,0.10007 0.0055,-0.0034 0.01088,-0.0069 0.01626,-0.01053 -0.239296,-0.14433 -0.47865,-0.288731 -0.718073,-0.433248 -0.254279,-0.226748 -0.508613,-0.453572 -0.763017,-0.680503 -0.114241,-0.206086 -0.228549,-0.412279 -0.342917,-0.618565 -0.01111,-0.100142 -0.02228,-0.200399 -0.03349,-0.300729 0.06689,-0.05085 0.133705,-0.101772 0.200461,-0.152821 0.0933,-0.0219 0.18654,-0.04388 0.279714,-0.06595 0.130547,5.9e-5 0.261022,2.1e-5 0.391439,-1.11e-4 0.506735,0.07123 1.013383,0.142389 1.519983,0.213428 0.237793,-2.86e-4 0.475515,-6.66e-4 0.71318,-0.0012 0.08345,-0.01935 0.166815,-0.03877 0.250123,-0.05831 -0.02765,-0.06642 -0.05535,-0.132923 -0.08311,-0.199513 -0.226868,-0.07176 -0.45379,-0.143618 -0.680781,-0.21557 -0.196946,-0.03734 -0.393942,-0.07489 -0.591013,-0.112464 -0.09413,-0.03876 -0.188349,-0.07751 -0.28263,-0.116399 v 0 c 0.151557,-1.08e-4 0.303031,-3.16e-4 0.454446,-5.97e-4"
       inkscape:path-effect="#path-effect10755" />
  </g>
</svg>
